<svg width="38" height="34" viewBox="0 0 38 34" fill="none" xmlns="http://www.w3.org/2000/svg">
<path d="M34.2687 19.1541C31.5296 19.1541 30.3434 21.2383 28.8552 21.2383C24.8985 21.2383 28.5 9.61111 28.5 9.61111C28.5 9.61111 15.5504 14.8889 15.5504 9.3936C15.5504 7.03002 17.9444 6.34239 17.9444 3.72098C17.9444 1.37884 16.0896 0.111115 13.8897 0.111115C11.6035 0.111115 9.51141 1.3574 9.51141 3.82839C9.51141 6.55726 11.6035 7.73902 11.6035 9.22161C11.6035 13.8148 0 11.1125 0 11.1125V33.0969C0 33.0969 11.7849 35.8049 11.7849 31.206C11.7849 29.7234 9.14606 28.5601 9.14606 25.8312C9.14606 23.3601 11.0757 22.1139 13.3404 22.1139C15.5619 22.1139 17.4167 23.3816 17.4167 25.7237C17.4167 28.3451 15.0227 29.0327 15.0227 31.3963C15.0227 35.4076 23.5776 33.0938 26.9788 33.0938C26.9788 33.0938 24.6879 25.1705 28.6827 25.1705C31.0552 25.1705 31.7453 27.5555 34.3766 27.5555C36.7275 27.5556 38 25.7077 38 23.4945C38 21.2383 36.749 19.1541 34.2687 19.1541Z" fill="white"/>
</svg>
