<svg width="15" height="15" viewBox="0 0 15 15" fill="none" xmlns="http://www.w3.org/2000/svg">
<g clip-path="url(#clip0_108_374)">
<path d="M14.0625 2.34375V12.6562C14.0625 13.4329 13.4329 14.0625 12.6562 14.0625H2.34375C1.56709 14.0625 0.9375 13.4329 0.9375 12.6562V2.34375C0.9375 1.56709 1.56709 0.9375 2.34375 0.9375H12.6562C13.4329 0.9375 14.0625 1.56709 14.0625 2.34375ZM11.4844 2.8125H8.20397C7.57957 2.8125 7.26413 3.57015 7.70678 4.01282L8.64381 4.94994L2.91548 10.6783C2.77819 10.8156 2.77819 11.0382 2.91548 11.1755L3.82453 12.0845C3.96185 12.2218 4.18444 12.2218 4.32173 12.0845L10.05 6.35622L10.9872 7.29346C11.4275 7.7337 12.1875 7.42456 12.1875 6.79626V3.51562C12.1875 3.1273 11.8727 2.8125 11.4844 2.8125Z" fill="white"/>
</g>
<defs>
<clipPath id="clip0_108_374">
<rect width="15" height="15" fill="white"/>
</clipPath>
</defs>
</svg>
