<svg width="35" height="34" viewBox="0 0 35 34" fill="none" xmlns="http://www.w3.org/2000/svg">
<path d="M11.8877 27.166C11.8877 27.3027 11.7305 27.4121 11.5322 27.4121C11.3066 27.4326 11.1494 27.3232 11.1494 27.166C11.1494 27.0293 11.3066 26.9199 11.5049 26.9199C11.71 26.8994 11.8877 27.0088 11.8877 27.166ZM9.76172 26.8584C9.71387 26.9951 9.85059 27.1523 10.0557 27.1934C10.2334 27.2617 10.4385 27.1934 10.4795 27.0566C10.5205 26.9199 10.3906 26.7627 10.1855 26.7012C10.0078 26.6533 9.80957 26.7217 9.76172 26.8584ZM12.7832 26.7422C12.585 26.79 12.4482 26.9199 12.4688 27.0771C12.4893 27.2139 12.667 27.3027 12.8721 27.2549C13.0703 27.207 13.207 27.0771 13.1865 26.9404C13.166 26.8105 12.9814 26.7217 12.7832 26.7422ZM17.2812 0.546875C7.79981 0.546875 0.546875 7.74512 0.546875 17.2266C0.546875 24.8076 5.31836 31.2949 12.1338 33.5781C13.0088 33.7354 13.3164 33.1953 13.3164 32.751C13.3164 32.3271 13.2959 29.9893 13.2959 28.5537C13.2959 28.5537 8.51074 29.5791 7.50586 26.5166C7.50586 26.5166 6.72656 24.5273 5.60547 24.0146C5.60547 24.0146 4.04004 22.9414 5.71484 22.9619C5.71484 22.9619 7.41699 23.0986 8.35352 24.7256C9.85059 27.3643 12.3594 26.6055 13.3369 26.1543C13.4941 25.0605 13.9385 24.3018 14.4307 23.8506C10.6094 23.4268 6.75391 22.873 6.75391 16.2969C6.75391 14.417 7.27344 13.4736 8.36719 12.2705C8.18945 11.8262 7.6084 9.99414 8.54492 7.62891C9.97363 7.18457 13.2617 9.47461 13.2617 9.47461C14.6289 9.0918 16.0986 8.89355 17.5547 8.89355C19.0107 8.89355 20.4805 9.0918 21.8477 9.47461C21.8477 9.47461 25.1357 7.17773 26.5645 7.62891C27.501 10.001 26.9199 11.8262 26.7422 12.2705C27.8359 13.4805 28.5059 14.4238 28.5059 16.2969C28.5059 22.8936 24.4795 23.4199 20.6582 23.8506C21.2871 24.3906 21.8203 25.416 21.8203 27.0225C21.8203 29.3262 21.7998 32.1768 21.7998 32.7373C21.7998 33.1816 22.1143 33.7217 22.9824 33.5645C29.8184 31.2949 34.4531 24.8076 34.4531 17.2266C34.4531 7.74512 26.7627 0.546875 17.2812 0.546875ZM7.19141 24.124C7.10254 24.1924 7.12305 24.3496 7.23926 24.4795C7.34863 24.5889 7.50586 24.6367 7.59473 24.5479C7.68359 24.4795 7.66309 24.3223 7.54688 24.1924C7.4375 24.083 7.28027 24.0352 7.19141 24.124ZM6.45312 23.5703C6.40527 23.6592 6.47363 23.7686 6.61035 23.8369C6.71973 23.9053 6.85645 23.8848 6.9043 23.7891C6.95215 23.7002 6.88379 23.5908 6.74707 23.5225C6.61035 23.4814 6.50098 23.502 6.45312 23.5703ZM8.66797 26.0039C8.55859 26.0928 8.59961 26.2979 8.75684 26.4277C8.91406 26.585 9.1123 26.6055 9.20117 26.4961C9.29004 26.4072 9.24902 26.2021 9.1123 26.0723C8.96191 25.915 8.75684 25.8945 8.66797 26.0039ZM7.88867 24.999C7.7793 25.0674 7.7793 25.2451 7.88867 25.4023C7.99805 25.5596 8.18262 25.6279 8.27148 25.5596C8.38086 25.4707 8.38086 25.293 8.27148 25.1357C8.17578 24.9785 7.99805 24.9102 7.88867 24.999Z" fill="#F9F9F9"/>
</svg>
