<svg width="31" height="31" viewBox="0 0 31 31" fill="none" xmlns="http://www.w3.org/2000/svg">
<path d="M28.625 0.1875H2.36816C1.16504 0.1875 0.1875 1.17871 0.1875 2.39551V28.6045C0.1875 29.8213 1.16504 30.8125 2.36816 30.8125H28.625C29.8281 30.8125 30.8125 29.8213 30.8125 28.6045V2.39551C30.8125 1.17871 29.8281 0.1875 28.625 0.1875ZM9.44336 26.4375H4.9043V11.8223H9.4502V26.4375H9.44336ZM7.17383 9.82617C5.71777 9.82617 4.54199 8.64355 4.54199 7.19434C4.54199 5.74512 5.71777 4.5625 7.17383 4.5625C8.62305 4.5625 9.80566 5.74512 9.80566 7.19434C9.80566 8.65039 8.62988 9.82617 7.17383 9.82617ZM26.458 26.4375H21.9189V19.3281C21.9189 17.6328 21.8848 15.4521 19.5605 15.4521C17.1953 15.4521 16.833 17.2979 16.833 19.2051V26.4375H12.2939V11.8223H16.6484V13.8184H16.71C17.3184 12.6699 18.8018 11.46 21.0098 11.46C25.6035 11.46 26.458 14.4883 26.458 18.4258V26.4375Z" fill="#F9F9F9"/>
</svg>
