<svg width="29" height="31" viewBox="0 0 29 31" fill="none" xmlns="http://www.w3.org/2000/svg">
<path d="M28.7871 10.2439C28.7871 3.59938 24.4319 1.65113 24.4319 1.65113C20.1581 -0.310781 8.80772 -0.290273 4.57491 1.65113C4.57491 1.65113 0.219047 3.59938 0.219047 10.2439C0.219047 18.1531 -0.232125 27.9763 7.43985 30.0066C10.2091 30.738 12.5887 30.8953 14.5034 30.7859C17.9768 30.5945 19.9257 29.5486 19.9257 29.5486L19.8095 27.0261C19.8095 27.0261 17.3273 27.8054 14.5376 27.7166C11.7752 27.6209 8.86377 27.4158 8.41055 24.0252C8.36853 23.7102 8.34797 23.3927 8.34903 23.075C14.2026 24.5037 19.1942 23.697 20.5683 23.533C24.4046 23.075 27.746 20.7097 28.1719 18.5496C28.8418 15.1453 28.7871 10.2439 28.7871 10.2439ZM23.652 18.8025H20.4644V10.9959C20.4644 7.5984 16.0894 7.46852 16.0894 11.4675V15.74H12.9223V11.4669C12.9223 7.46783 8.54727 7.59772 8.54727 10.9952V18.8018H5.35284C5.35284 10.4551 4.99737 8.69147 6.61133 6.83893C8.38184 4.86334 12.0678 4.73346 13.7091 7.25592L14.5021 8.58893L15.295 7.25592C16.9432 4.71979 20.6353 4.87701 22.3928 6.83893C24.0136 8.70514 23.6506 10.462 23.6506 18.8018L23.652 18.8025Z" fill="#F9F9F9"/>
</svg>
