<svg width="36" height="32" viewBox="0 0 36 32" fill="none" xmlns="http://www.w3.org/2000/svg">
<path d="M34.5 4H28V1.5C28 0.66875 27.3312 0 26.5 0H9.5C8.66875 0 8 0.66875 8 1.5V4H1.5C0.66875 4 0 4.66875 0 5.5V9C0 11.2312 1.40625 13.525 3.86875 15.2937C5.8375 16.7125 8.23125 17.6125 10.7437 17.9C12.7062 21.1562 15 22.5 15 22.5V27H12C9.79375 27 8 28.2937 8 30.5V31.25C8 31.6625 8.3375 32 8.75 32H27.25C27.6625 32 28 31.6625 28 31.25V30.5C28 28.2937 26.2062 27 24 27H21V22.5C21 22.5 23.2938 21.1562 25.2563 17.9C27.775 17.6125 30.1687 16.7125 32.1312 15.2937C34.5875 13.525 36 11.2312 36 9V5.5C36 4.66875 35.3312 4 34.5 4ZM6.20625 12.05C4.68125 10.95 4 9.725 4 9V8H8.0125C8.075 10.0375 8.375 11.825 8.8125 13.3875C7.86875 13.0625 6.9875 12.6125 6.20625 12.05ZM32 9C32 10.0062 30.8938 11.2562 29.7938 12.05C29.0125 12.6125 28.125 13.0625 27.1812 13.3875C27.6187 11.825 27.9188 10.0375 27.9813 8H32V9Z" fill="white"/>
</svg>
