<svg width="1645" height="1512" viewBox="0 0 1645 1512" fill="none" xmlns="http://www.w3.org/2000/svg">
<rect width="1645" height="1512" fill="#A8A8A8"/>
<path d="M790.324 580.125H1058.74V594.433C1058.74 618.953 1039.68 638.66 1016.27 638.66H1003.91L947.459 697V638.66H832.795C809.381 638.66 790.324 618.953 790.324 594.433V580.125ZM790.324 564.776H1058.74V509.492H790.324V564.776ZM790.324 493.623H1058.74V438.34H790.324V493.623ZM1016.2 364H832.795C809.381 364 790.324 383.707 790.324 408.031V422.535H1058.74V408.031C1058.68 383.707 1039.62 364 1016.2 364Z" fill="#1C1C1C"/>
<path d="M768 933C827.101 933 875 885.101 875 826C875 766.899 827.101 719 768 719C708.899 719 661 766.899 661 826C661 885.101 708.899 933 768 933ZM848.083 960.252L808.125 1120.25L781.375 1006.56L808.125 959.75H727.875L754.625 1006.56L727.875 1120.25L687.917 960.252C628.315 963.094 580.75 1011.83 580.75 1072.1V1106.88C580.75 1129.03 598.723 1147 620.875 1147H915.125C937.277 1147 955.25 1129.03 955.25 1106.88V1072.1C955.25 1011.83 907.685 963.094 848.083 960.252Z" fill="#1C1C1C"/>
</svg>
