<?xml version="1.0" standalone="no"?>
<!DOCTYPE svg PUBLIC "-//W3C//DTD SVG 20010904//EN"
 "http://www.w3.org/TR/2001/REC-SVG-20010904/DTD/svg10.dtd">
<svg version="1.0" xmlns="http://www.w3.org/2000/svg"
 width="1464.000000pt" height="1511.000000pt" viewBox="0 0 1464.000000 1511.000000"
 preserveAspectRatio="xMidYMid meet">

<g transform="translate(0.000000,1511.000000) scale(0.100000,-0.100000)"
fill="#000000" stroke="none">
<path d="M6870 14990 c-63 -5 -135 -12 -159 -15 l-43 -7 6 -286 c4 -158 11
-489 16 -737 21 -1008 31 -1370 39 -1378 4 -4 39 -3 77 3 190 27 697 22 1032
-11 67 -7 125 -10 127 -7 3 3 9 60 13 128 7 120 7 122 -15 131 -50 19 -393 42
-673 45 l-295 3 -3 424 -2 424 46 7 c77 10 397 6 594 -8 102 -8 188 -11 192
-7 4 3 8 62 9 130 l2 125 -24 7 c-53 14 -528 31 -670 25 l-147 -7 -7 343 c-4
189 -5 357 -4 373 l4 30 360 -1 c319 0 417 -5 606 -29 l36 -5 8 131 c4 72 4
133 1 136 -27 27 -876 52 -1126 33z"/>
<path d="M8616 14828 c-3 -18 -10 -107 -16 -198 -15 -232 -61 -871 -80 -1105
-21 -251 -23 -503 -6 -609 65 -393 290 -620 726 -732 94 -24 249 -21 319 5
133 50 221 151 284 328 46 127 57 182 121 613 9 58 22 150 31 205 9 55 20 129
25 165 6 36 17 108 25 160 8 52 22 140 30 195 8 55 21 145 30 200 9 55 20 131
25 169 6 37 13 73 16 78 3 5 1 15 -5 22 -14 16 -289 141 -296 134 -3 -3 -10
-43 -15 -89 -6 -46 -15 -113 -20 -149 -6 -36 -24 -166 -40 -290 -16 -124 -32
-241 -35 -260 -7 -45 -31 -220 -44 -330 -6 -47 -16 -114 -21 -150 -6 -36 -19
-128 -30 -205 -35 -247 -83 -378 -169 -458 -27 -25 -65 -50 -87 -56 -89 -25
-200 -5 -323 56 -122 61 -197 152 -243 297 -26 78 -35 336 -19 516 6 69 16
179 21 245 5 66 14 165 20 220 5 55 17 179 25 275 9 96 20 220 25 275 6 55 15
156 20 225 5 69 13 141 16 161 6 35 5 37 -27 47 -49 16 -115 33 -184 47 -33 7
-68 16 -77 20 -13 5 -18 0 -22 -27z"/>
<path d="M5768 14817 c-69 -18 -130 -35 -134 -40 -4 -4 -2 -82 5 -175 33 -435
61 -816 76 -1032 8 -113 21 -293 29 -400 13 -177 13 -212 2 -199 -2 2 -38 72
-81 154 -216 416 -388 691 -609 970 -150 190 -309 375 -321 375 -15 0 -286
-118 -299 -130 -8 -8 -3 -56 28 -290 8 -58 20 -143 26 -190 6 -47 22 -166 35
-265 14 -99 32 -229 40 -290 8 -60 20 -141 25 -180 6 -38 24 -171 40 -295 16
-124 36 -272 45 -330 8 -58 22 -161 31 -230 9 -69 21 -157 27 -196 l12 -72 45
22 c25 12 80 37 123 55 77 34 78 35 73 65 -5 29 -16 111 -51 411 -8 66 -21
179 -30 250 -16 129 -20 160 -49 410 -9 72 -23 186 -31 255 -57 461 -62 521
-43 500 37 -44 223 -287 280 -365 189 -264 408 -631 611 -1025 49 -96 93 -179
97 -183 4 -5 69 7 145 25 l137 33 -6 110 c-4 61 -11 175 -16 255 -5 80 -17
269 -25 420 -8 151 -20 343 -25 425 -6 83 -15 229 -20 325 -35 631 -50 860
-59 859 -3 0 -63 -15 -133 -32z"/>
<path d="M6935 11190 c-109 -7 -143 -13 -257 -51 -52 -17 -144 -102 -171 -157
l-22 -47 -3 -875 -2 -876 100 4 c134 6 170 -8 250 -95 33 -36 66 -78 74 -92
27 -50 87 -156 112 -196 13 -22 33 -56 44 -75 12 -19 34 -56 49 -82 16 -25 40
-66 54 -90 14 -23 37 -64 52 -90 27 -49 68 -88 91 -88 18 0 51 -45 59 -80 7
-32 40 -47 110 -49 22 0 74 -3 115 -7 l76 -6 47 54 c27 29 78 85 114 124 36
40 74 85 84 100 18 28 19 70 19 1268 l0 1239 -22 36 c-26 44 -78 101 -92 101
-6 0 -22 9 -36 20 -24 19 -42 19 -375 18 -192 -1 -404 -5 -470 -8z"/>
<path d="M6535 9066 c-16 -8 -45 -29 -62 -48 -35 -36 -139 -256 -200 -423 -24
-65 -47 -109 -65 -127 -24 -22 -27 -31 -19 -47 8 -14 6 -34 -9 -77 -28 -79
-45 -104 -75 -104 -14 0 -25 -1 -25 -3 0 -1 4 -17 9 -34 11 -36 -7 -118 -34
-159 -12 -19 -21 -23 -42 -18 -23 6 -25 5 -19 -12 12 -29 19 -100 13 -126 -4
-13 -26 -36 -52 -52 -35 -22 -44 -33 -38 -45 4 -9 8 -44 8 -78 0 -75 -25 -116
-73 -121 -37 -4 -36 -2 -17 -66 24 -78 20 -93 -25 -116 -21 -11 -46 -20 -55
-20 -19 0 -19 -11 -1 -80 17 -63 12 -72 -44 -89 -47 -14 -51 -32 -19 -98 12
-24 20 -45 18 -47 -2 -1 -37 -21 -77 -45 -49 -28 -72 -48 -70 -58 2 -9 24 -30
50 -47 26 -17 47 -33 47 -36 1 -3 -14 -15 -32 -28 -57 -38 -202 -162 -200
-169 2 -4 26 -8 55 -10 98 -6 103 -23 21 -72 -66 -38 -203 -138 -203 -148 0
-3 22 -3 49 0 60 7 93 -1 89 -21 -2 -8 -32 -33 -68 -54 -56 -35 -160 -115
-280 -217 -19 -16 -32 -33 -28 -36 4 -4 45 -2 93 6 47 7 88 9 93 5 4 -4 -11
-22 -33 -39 -71 -56 -155 -139 -251 -249 -52 -58 -94 -109 -94 -112 0 -9 84
-7 165 4 38 5 72 7 74 4 3 -2 -13 -23 -35 -47 -81 -85 -274 -323 -274 -337 0
-5 6 -10 13 -10 27 0 181 20 198 25 29 9 23 -8 -24 -77 -24 -35 -68 -103 -97
-152 l-53 -88 42 -232 c24 -127 55 -303 71 -391 16 -88 47 -258 69 -377 23
-120 41 -228 41 -241 0 -14 16 -38 41 -62 58 -56 249 -279 414 -484 204 -254
572 -682 607 -708 16 -12 62 -29 102 -38 39 -10 152 -39 251 -66 99 -27 198
-53 220 -59 22 -5 114 -30 205 -54 91 -25 210 -56 265 -71 55 -14 114 -33 132
-42 l33 -15 177 168 c98 93 261 250 363 349 198 193 553 527 845 795 99 91
201 186 228 211 l47 46 -4 249 c-3 137 -6 376 -8 532 l-2 284 85 32 c145 54
205 99 280 211 63 93 91 153 84 183 -5 25 2 35 64 91 49 43 86 88 122 149 29
48 65 106 80 128 48 71 127 237 144 303 9 35 15 79 13 100 -3 32 -9 39 -53 63
-27 15 -142 64 -253 108 -279 111 -672 295 -680 318 -1 5 6 12 17 15 30 8 52
60 51 125 -1 31 -1 77 -1 101 0 38 -5 51 -38 86 -45 49 -59 86 -101 264 -34
146 -54 191 -138 318 l-56 85 3 107 c3 121 -9 297 -44 651 -13 135 -27 274
-30 310 -24 296 -62 394 -152 394 -29 0 -42 -7 -69 -38 -19 -22 -43 -64 -54
-95 -34 -89 -116 -242 -179 -332 -56 -81 -214 -267 -334 -393 -54 -57 -57 -59
-75 -43 -13 12 -28 15 -50 11 -19 -4 -38 -2 -46 5 -7 6 -26 8 -45 5 -18 -4
-37 -2 -45 6 -9 6 -24 9 -36 5 -12 -4 -35 -1 -51 5 -23 10 -32 10 -45 -1 -13
-11 -19 -8 -41 19 -13 18 -33 32 -44 32 -21 0 -25 20 -8 37 7 7 9 19 5 28 -5
14 -9 15 -21 5 -8 -7 -15 -8 -15 -3 0 5 -18 34 -41 64 -22 30 -125 196 -229
369 -103 173 -199 325 -212 337 -52 49 -142 66 -203 39z m157 -243 c42 -25 81
-91 185 -308 98 -204 142 -333 153 -455 l6 -75 25 50 24 50 3 -68 c2 -38 -1
-74 -7 -80 -5 -8 -6 -44 -1 -96 5 -47 7 -88 4 -92 -3 -5 1 -17 7 -27 21 -34 4
-49 -75 -66 l-76 -17 -42 -71 -42 -71 -22 28 c-20 26 -25 27 -90 24 l-68 -4
-9 40 c-16 71 -47 168 -59 182 -19 24 0 26 36 4 19 -12 54 -45 78 -73 23 -28
44 -46 45 -41 2 6 -10 45 -27 88 -17 43 -29 83 -27 89 2 6 33 -33 68 -88 35
-54 65 -94 66 -89 2 5 -12 43 -31 84 -30 67 -52 131 -71 213 -12 54 20 12 50
-66 34 -87 45 -74 17 20 -12 37 -26 105 -32 152 -26 198 -83 320 -171 366 -26
13 -32 13 -59 -1 -34 -18 -83 -97 -105 -170 -29 -95 -39 -225 -27 -345 11
-109 11 -112 -13 -159 -48 -95 -63 -242 -43 -406 2 -14 -8 -25 -34 -38 -56
-27 -48 -40 22 -35 33 2 60 1 60 -3 0 -14 -114 -101 -192 -147 -43 -24 -78
-49 -78 -53 0 -12 -1 -13 85 27 42 19 80 33 83 29 4 -4 -2 -11 -13 -17 -35
-19 -105 -98 -105 -118 0 -29 -13 -25 -41 13 -52 70 -62 97 -49 140 10 33 9
41 -5 51 -13 9 -15 26 -13 76 l3 65 43 3 c52 4 51 20 -3 39 -62 21 -67 51 -14
79 16 8 29 22 29 31 0 9 -12 65 -26 124 -14 59 -24 122 -22 141 3 31 5 29 32
-37 38 -89 101 -197 144 -244 19 -20 31 -29 28 -21 -3 8 -24 62 -47 120 -41
101 -42 109 -41 210 1 145 92 624 109 573 3 -7 -7 -88 -20 -180 -34 -225 -50
-371 -45 -413 2 -29 7 -18 25 60 13 52 32 158 43 234 35 243 87 447 157 619
60 148 132 198 215 150z m1772 -279 c0 -109 -1 -217 -2 -239 -1 -22 -1 -65 -1
-95 1 -30 1 -75 0 -100 -1 -25 -1 -61 0 -80 0 -19 0 -55 -1 -80 0 -25 2 -69 6
-99 4 -33 1 -70 -6 -95 -7 -23 -14 -47 -16 -55 -6 -20 -48 10 -52 38 -3 20 -8
22 -42 16 -56 -9 -63 9 -51 137 17 171 106 727 132 821 6 22 15 37 22 34 9 -3
12 -58 11 -203z m-382 -857 c91 -55 173 -173 234 -333 14 -37 41 -140 60 -228
57 -268 92 -351 190 -457 80 -84 173 -136 529 -294 262 -116 335 -152 335
-165 0 -6 -24 -10 -53 -10 -73 0 -160 -25 -235 -66 -63 -36 -142 -103 -142
-121 0 -6 16 -31 35 -56 19 -25 35 -51 35 -57 0 -10 27 -51 128 -193 54 -76
68 -88 211 -177 l53 -34 -28 -20 c-16 -12 -46 -36 -67 -55 -27 -24 -43 -32
-59 -28 -12 4 -29 0 -38 -7 -20 -17 -214 -94 -355 -139 -280 -91 -364 -103
-467 -68 -30 10 -163 71 -294 134 -286 137 -338 157 -409 157 -46 0 -58 -4
-84 -30 -52 -52 -51 -109 3 -168 28 -32 254 -169 315 -192 85 -33 534 -110
638 -110 91 0 184 32 378 131 179 91 361 166 373 154 8 -8 -65 -153 -98 -195
-15 -19 -53 -50 -83 -68 -124 -75 -414 -152 -571 -152 -67 0 -436 40 -606 66
-243 36 -283 48 -422 125 -72 40 -158 84 -192 97 -72 30 -176 40 -233 22 -39
-13 -93 -56 -93 -74 0 -7 51 -11 152 -11 145 0 288 -17 288 -35 0 -4 -30 -25
-67 -46 -70 -40 -163 -122 -163 -142 0 -6 51 -49 113 -95 203 -152 321 -305
379 -495 27 -89 34 -370 15 -597 -13 -154 -14 -158 -25 -115 -49 184 -113 383
-122 373 -8 -10 -36 -172 -50 -298 -6 -49 -19 -151 -30 -225 -12 -74 -26 -191
-34 -260 -14 -140 -13 -140 -60 12 -15 48 -31 90 -35 92 -5 3 -11 -24 -15 -61
-4 -36 -13 -95 -21 -132 -7 -36 -21 -124 -30 -196 -16 -131 -64 -406 -71 -414
-2 -2 -37 27 -77 65 -40 38 -166 155 -281 259 -208 190 -388 377 -781 810
-115 127 -295 318 -399 425 -208 212 -340 359 -332 367 3 3 31 -11 63 -30 32
-19 108 -60 170 -91 104 -52 164 -87 503 -296 317 -195 451 -267 649 -347 121
-48 148 -55 245 -64 59 -6 110 -8 113 -5 6 5 -47 45 -292 216 -104 73 -217
153 -250 178 -85 65 -315 262 -414 356 -194 185 -760 793 -761 819 0 4 41 -13
92 -39 167 -84 396 -179 407 -169 4 5 -61 108 -119 185 -22 29 -40 57 -40 61
0 10 132 -60 340 -179 201 -116 703 -447 850 -561 40 -32 60 -44 60 -38 0 3
-23 33 -51 68 -166 208 -347 596 -409 876 -27 124 -26 139 10 152 17 5 30 13
30 16 0 6 -119 -2 -150 -11 -8 -2 -22 1 -30 6 -13 9 -12 13 8 29 12 11 22 24
22 30 0 17 -71 44 -125 47 -27 1 -50 6 -50 11 0 13 137 82 177 89 21 4 36 10
33 13 -2 4 -38 25 -79 46 -41 21 -77 44 -80 52 -7 16 4 16 79 -2 70 -17 105
-19 105 -6 0 18 -108 50 -206 61 -210 23 -374 53 -374 69 0 4 28 15 62 25 90
25 272 98 453 183 149 69 165 80 230 146 39 40 123 140 187 222 65 83 135 170
157 195 l40 45 1 -332 c0 -279 2 -333 14 -333 59 0 598 119 615 135 2 3 -22
27 -52 55 -31 28 -100 101 -154 163 -204 231 -237 298 -168 343 23 15 27 14
92 -24 37 -22 109 -77 158 -122 50 -45 113 -98 142 -117 l51 -35 129 26 c70
14 139 26 152 28 l25 3 -2 -135 c-2 -138 5 -201 24 -207 6 -2 16 9 23 24 32
70 135 207 228 305 57 58 103 109 103 113 0 3 -9 23 -19 43 -24 47 -40 109
-87 331 -45 219 -81 330 -146 451 -61 116 -93 161 -158 233 -27 30 -50 57 -50
61 0 9 30 -5 82 -37z m-48 -307 c48 -18 56 -26 74 -68 30 -69 62 -197 69 -273
7 -76 -6 -109 -62 -158 -66 -57 -148 -33 -195 58 -25 49 -67 86 -115 101 -53
16 -71 34 -91 85 -15 40 -15 45 1 79 21 43 94 110 151 138 l40 20 52 -26 c74
-37 84 -58 81 -157 -4 -86 6 -106 30 -67 19 30 16 119 -5 164 -9 19 -36 51
-60 71 -69 56 -59 66 30 33z m621 -125 c62 -59 68 -69 73 -113 3 -36 -4 -73
-28 -148 -29 -90 -32 -106 -26 -184 3 -47 9 -98 12 -115 14 -66 -20 -2 -87
166 -85 215 -89 262 -32 417 9 23 17 42 18 42 1 0 33 -29 70 -65z m-848 -363
c50 -16 153 -181 153 -248 0 -13 -117 -44 -163 -44 -44 0 -153 39 -196 70 -51
37 -66 71 -49 108 19 38 102 93 162 108 58 14 63 14 93 6z m964 -44 c21 -6 41
-19 44 -28 3 -9 21 -24 40 -33 20 -9 38 -24 41 -32 12 -29 -8 -88 -38 -118
-26 -26 -29 -34 -18 -50 20 -32 6 -29 -51 12 -65 47 -80 74 -87 163 -7 101 -2
108 69 86z m669 -827 c-61 -20 -69 -19 -50 4 8 10 28 15 59 14 l46 -1 -55 -17z
m-60 -171 c0 -5 -7 -10 -16 -10 -8 0 -12 5 -9 10 3 6 10 10 16 10 5 0 9 -4 9
-10z m-2946 -159 c3 -5 -3 -11 -14 -14 -20 -5 -35 5 -23 17 9 9 31 7 37 -3z
m3128 -168 c-18 -33 -171 -175 -184 -171 -23 8 -14 24 41 83 51 54 139 120
149 111 2 -2 -1 -13 -6 -23z"/>
<path d="M8713 5793 c-29 -4 -33 -8 -33 -34 0 -33 2 -33 86 -18 63 11 108 34
99 49 -6 10 -87 11 -152 3z"/>
<path d="M8525 5759 c-11 -32 7 -42 64 -34 46 6 71 24 71 49 0 3 -29 6 -64 6
-57 0 -65 -3 -71 -21z"/>
<path d="M8382 5761 c-8 -5 -12 -17 -10 -27 5 -29 80 -32 107 -5 12 12 21 26
21 31 0 12 -100 13 -118 1z"/>
<path d="M8282 5733 c4 -39 40 -43 56 -8 16 35 17 35 -24 35 -33 0 -35 -2 -32
-27z"/>
<path d="M8668 5636 c-6 -14 -8 -31 -5 -40 11 -29 96 16 97 52 0 7 -15 12 -40
12 -33 0 -42 -4 -52 -24z"/>
<path d="M8383 5643 c-7 -2 -13 -16 -13 -29 0 -28 30 -33 54 -8 33 32 6 57
-41 37z"/>
<path d="M8514 5635 c-10 -26 4 -45 34 -45 32 0 52 16 52 42 0 14 -8 18 -40
18 -27 0 -43 -5 -46 -15z"/>
<path d="M8832 5638 c-7 -7 -12 -20 -12 -30 0 -16 5 -18 38 -12 44 8 57 17 49
38 -8 19 -58 21 -75 4z"/>
<path d="M8987 5604 c-8 -8 1 -24 14 -24 5 0 9 7 9 15 0 15 -12 20 -23 9z"/>
<path d="M9032 5598 c6 -18 28 -21 28 -4 0 9 -7 16 -16 16 -9 0 -14 -5 -12
-12z"/>
<path d="M8497 5523 c-15 -14 -7 -43 12 -43 22 0 45 25 36 40 -7 11 -38 14
-48 3z"/>
<path d="M8823 5513 c-17 -6 -16 -33 1 -33 17 0 38 24 29 33 -7 8 -12 8 -30 0z"/>
<path d="M9180 5510 c-8 -5 -11 -12 -7 -16 4 -4 13 -2 19 4 15 15 7 24 -12 12z"/>
<path d="M8647 5503 c-15 -15 -6 -33 17 -33 35 0 56 10 56 26 0 14 -60 20 -73
7z"/>
<path d="M8950 5495 c0 -8 4 -15 9 -15 5 0 11 7 15 15 3 9 0 15 -9 15 -8 0
-15 -7 -15 -15z"/>
<path d="M9050 5494 c0 -9 5 -14 12 -12 18 6 21 28 4 28 -9 0 -16 -7 -16 -16z"/>
<path d="M9325 5460 c-20 -21 -24 -30 -14 -30 15 0 59 40 59 53 0 15 -17 6
-45 -23z"/>
<path d="M9160 5420 c0 -5 5 -10 10 -10 6 0 10 5 10 10 0 6 -4 10 -10 10 -5 0
-10 -4 -10 -10z"/>
<path d="M8630 5380 c0 -5 9 -10 20 -10 11 0 20 5 20 10 0 6 -9 10 -20 10 -11
0 -20 -4 -20 -10z"/>
<path d="M8930 5364 c0 -9 5 -14 12 -12 18 6 21 28 4 28 -9 0 -16 -7 -16 -16z"/>
<path d="M8797 5363 c-12 -11 -8 -23 8 -23 8 0 15 7 15 15 0 16 -12 20 -23 8z"/>
<path d="M3220 7890 c-139 -26 -229 -40 -345 -55 -255 -32 -546 -92 -655 -135
-41 -16 -102 -37 -135 -46 -138 -38 -229 -97 -277 -179 l-23 -40 -3 -2485 c-2
-2293 -1 -2488 14 -2530 20 -55 44 -82 102 -116 l43 -26 512 5 c534 4 558 6
643 50 39 20 102 90 120 133 12 29 14 330 14 2012 0 1387 3 1996 11 2037 16
91 43 119 142 150 45 15 114 29 153 32 66 5 77 3 142 -27 109 -50 147 -117
162 -283 5 -57 10 -941 10 -2017 0 -1566 3 -1922 14 -1953 17 -51 70 -105 125
-129 45 -20 60 -20 531 -14 490 7 595 14 660 47 42 20 126 107 140 144 6 16
10 191 10 437 l0 411 -34 52 c-19 28 -42 58 -52 66 -9 8 -35 38 -56 67 -22 29
-81 97 -133 151 -97 100 -115 129 -115 183 0 18 -6 57 -14 87 -8 31 -19 88
-25 126 -15 101 -31 200 -46 280 -7 39 -18 102 -24 140 -7 39 -34 181 -61 316
-28 135 -50 260 -50 278 0 36 19 81 55 130 30 41 32 61 6 61 -29 0 -80 47 -89
83 -16 62 11 119 111 232 38 44 46 65 24 65 -7 0 -26 14 -42 30 -25 26 -29 39
-29 85 0 51 3 58 45 102 25 27 72 80 106 119 l62 71 -16 44 c-28 76 -15 105
81 190 46 41 100 86 119 102 35 26 36 29 30 78 l-6 50 63 62 c63 60 64 62 67
122 15 264 -13 418 -110 610 -143 285 -362 456 -672 524 -343 76 -341 76 -820
78 -242 0 -460 -3 -485 -7z"/>
<path d="M9415 7800 c-114 -9 -145 -17 -202 -53 -40 -26 -99 -98 -121 -150
-13 -31 -18 -1013 -4 -1033 4 -6 25 -19 47 -29 22 -9 83 -37 135 -62 52 -25
178 -79 279 -119 248 -101 325 -140 372 -191 39 -42 39 -43 39 -124 0 -45 -7
-106 -16 -137 -19 -65 -86 -199 -144 -287 -21 -33 -51 -80 -65 -105 -14 -25
-34 -61 -45 -80 -11 -19 -46 -61 -79 -95 -32 -33 -62 -73 -66 -90 -11 -50 -38
-101 -119 -221 -34 -50 -160 -175 -191 -188 -16 -8 -52 -23 -80 -34 l-50 -21
-5 -528 c-3 -290 -9 -535 -13 -544 -12 -24 10 -321 32 -434 10 -55 29 -125 41
-155 11 -30 35 -93 52 -140 45 -125 102 -233 156 -293 26 -30 65 -75 86 -101
45 -56 219 -188 291 -222 28 -13 93 -40 145 -59 52 -19 115 -45 140 -56 24
-11 83 -30 130 -41 79 -19 124 -21 615 -25 634 -6 781 4 946 62 24 9 136 41
248 71 378 102 556 197 625 337 l26 51 0 2463 c0 1947 -3 2468 -12 2486 -21
36 -111 128 -138 139 -34 15 -963 11 -1045 -4 -33 -6 -73 -17 -89 -25 -46 -24
-118 -95 -137 -138 -18 -38 -19 -124 -19 -2025 0 -1753 -2 -1994 -16 -2059 -8
-41 -17 -78 -20 -82 -2 -4 -50 -22 -107 -40 -145 -46 -218 -46 -312 1 -63 32
-73 41 -102 95 -17 33 -40 89 -50 125 -17 61 -18 173 -23 2050 l-5 1985 -29
41 c-17 22 -46 52 -65 65 l-36 24 -450 1 c-247 1 -495 -2 -550 -6z"/>
<path d="M7659 2381 c-300 -292 -281 -282 -441 -237 -51 15 -136 38 -188 53
-52 14 -129 36 -170 48 -41 13 -106 31 -145 40 -38 9 -99 26 -134 36 -35 10
-72 19 -82 19 -19 0 -19 -25 -19 -1014 0 -689 3 -1024 11 -1043 13 -36 95
-120 136 -140 29 -13 94 -14 520 -10 595 6 618 10 711 110 78 85 72 -13 72
1253 0 624 -3 1134 -8 1134 -4 0 -123 -112 -263 -249z"/>
</g>
</svg>
