<svg width="59" height="59" viewBox="0 0 59 59" fill="none" xmlns="http://www.w3.org/2000/svg">
<rect width="59" height="59" rx="14" fill="#F9F9F9"/>
<path d="M27.6475 6.37327C27.4582 6.38882 27.2418 6.41059 27.1696 6.41993L27.0404 6.4417L27.0584 7.33131C27.0705 7.82277 27.0915 8.85236 27.1065 9.62377C27.1696 12.7592 27.1997 13.8852 27.2237 13.9101C27.2358 13.9225 27.341 13.9194 27.4552 13.9007C28.0262 13.8168 29.55 13.8323 30.5568 13.935C30.7582 13.9567 30.9325 13.9661 30.9385 13.9567C30.9475 13.9474 30.9655 13.7701 30.9776 13.5586C30.9986 13.1853 30.9986 13.1791 30.9325 13.1511C30.7822 13.092 29.7513 13.0205 28.9098 13.0111L28.0232 13.0018L28.0142 11.6829L28.0082 10.3641L28.1464 10.3423C28.3778 10.3112 29.3396 10.3236 29.9317 10.3672C30.2382 10.3921 30.4967 10.4014 30.5087 10.389C30.5207 10.3796 30.5328 10.1961 30.5358 9.98459L30.5418 9.59577L30.4696 9.574C30.3104 9.53045 28.8828 9.47757 28.456 9.49623L28.0142 9.51801L27.9931 8.4511C27.9811 7.86321 27.9781 7.34064 27.9811 7.29087L27.9931 7.19756L29.0751 7.20067C30.0338 7.20067 30.3284 7.21622 30.8964 7.29087L31.0046 7.30643L31.0287 6.89895C31.0407 6.67499 31.0407 6.48525 31.0317 6.47592C30.9505 6.39193 28.3989 6.31417 27.6475 6.37327Z" fill="black"/>
<path d="M32.895 6.87717C32.886 6.93316 32.865 7.21 32.847 7.49306C32.8019 8.2147 32.6636 10.2023 32.6065 10.9302C32.5434 11.7109 32.5374 12.4948 32.5885 12.8245C32.7838 14.0469 33.4601 14.753 34.7705 15.1014C35.053 15.176 35.5188 15.1667 35.7292 15.0858C36.1289 14.9303 36.3934 14.6162 36.5827 14.0656C36.721 13.6706 36.7541 13.4995 36.9464 12.1588C36.9735 11.9784 37.0125 11.6923 37.0396 11.5212C37.0666 11.3501 37.0997 11.1199 37.1147 11.0079C37.1327 10.896 37.1658 10.672 37.1899 10.5103C37.2139 10.3485 37.256 10.0748 37.28 9.90371C37.3041 9.73263 37.3431 9.45269 37.3702 9.28161C37.3972 9.11053 37.4303 8.87413 37.4453 8.75593C37.4633 8.64084 37.4844 8.52886 37.4934 8.51331C37.5024 8.49776 37.4964 8.46665 37.4784 8.44488C37.4363 8.39511 36.6098 8.00629 36.5888 8.02807C36.5797 8.0374 36.5587 8.16182 36.5437 8.3049C36.5256 8.44799 36.4986 8.65639 36.4836 8.76837C36.4655 8.88035 36.4114 9.28472 36.3633 9.67042C36.3153 10.0561 36.2672 10.4201 36.2582 10.4792C36.2371 10.6191 36.165 11.1635 36.1259 11.5056C36.1079 11.6518 36.0778 11.8602 36.0628 11.9722C36.0448 12.0842 36.0057 12.3704 35.9726 12.6099C35.8674 13.3782 35.7232 13.7856 35.4647 14.0345C35.3836 14.1122 35.2694 14.19 35.2032 14.2087C34.9358 14.2864 34.6021 14.2242 34.2325 14.0345C33.8658 13.8447 33.6404 13.5617 33.5021 13.1107C33.424 12.868 33.397 12.0655 33.445 11.5056C33.4631 11.291 33.4931 10.9488 33.5082 10.7436C33.5232 10.5383 33.5502 10.2303 33.5683 10.0592C33.5833 9.88816 33.6194 9.50245 33.6434 9.20384C33.6705 8.90523 33.7035 8.51953 33.7185 8.34845C33.7366 8.17737 33.7636 7.86321 33.7786 7.64858C33.7937 7.43396 33.8177 7.21 33.8267 7.14779C33.8448 7.03892 33.8418 7.0327 33.7456 7.00159C33.5983 6.95183 33.4 6.89895 33.1926 6.8554C33.0934 6.83363 32.9882 6.80563 32.9612 6.79319C32.9221 6.77764 32.9071 6.79319 32.895 6.87717Z" fill="black"/>
<path d="M24.3355 6.91139C24.1281 6.96738 23.9448 7.02026 23.9327 7.03581C23.9207 7.04825 23.9267 7.29087 23.9478 7.58015C24.0469 8.93323 24.1311 10.1183 24.1762 10.7902C24.2002 11.1417 24.2393 11.7016 24.2633 12.0344C24.3024 12.585 24.3024 12.6939 24.2693 12.6534C24.2633 12.6472 24.1551 12.4295 24.0259 12.1744C23.3767 10.8804 22.8598 10.025 22.1956 9.15719C21.7448 8.56619 21.2669 7.99074 21.2308 7.99074C21.1857 7.99074 20.3713 8.35778 20.3322 8.39511C20.3081 8.41999 20.3232 8.5693 20.4163 9.29716C20.4404 9.47757 20.4764 9.74196 20.4945 9.88816C20.5125 10.0344 20.5606 10.4045 20.5997 10.7124C20.6417 11.0204 20.6958 11.4248 20.7199 11.6145C20.7439 11.8011 20.78 12.0531 20.795 12.1744C20.8131 12.2926 20.8672 12.7063 20.9152 13.092C20.9633 13.4777 21.0234 13.9381 21.0505 14.1185C21.0745 14.2989 21.1166 14.6193 21.1437 14.8339C21.1707 15.0485 21.2068 15.3222 21.2248 15.4436L21.2609 15.6675L21.3961 15.5991C21.4713 15.5618 21.6366 15.484 21.7658 15.428C21.9972 15.3222 22.0002 15.3191 21.9852 15.2258C21.9702 15.1356 21.9371 14.8805 21.8319 13.9474C21.8079 13.7421 21.7688 13.3906 21.7417 13.1698C21.6937 12.7685 21.6816 12.6721 21.5945 11.8944C21.5674 11.6705 21.5254 11.3159 21.5013 11.1013C21.33 9.66731 21.315 9.48068 21.3721 9.546C21.4833 9.68286 22.0423 10.4387 22.2136 10.6813C22.7816 11.5025 23.4398 12.6441 24.0499 13.8696C24.1972 14.1682 24.3295 14.4264 24.3415 14.4389C24.3535 14.4544 24.5489 14.4171 24.7773 14.3611L25.189 14.2584L25.171 13.9163C25.159 13.7265 25.1379 13.3719 25.1229 13.1231C25.1079 12.8743 25.0718 12.2864 25.0478 11.8167C25.0237 11.347 24.9876 10.7498 24.9726 10.4947C24.9546 10.2365 24.9275 9.7824 24.9125 9.48379C24.8073 7.52105 24.7622 6.80874 24.7352 6.81185C24.7262 6.81185 24.5458 6.85851 24.3355 6.91139Z" fill="black"/>
<path d="M27.8429 18.1933C27.5153 18.215 27.4131 18.2337 27.0705 18.3519C26.9142 18.4048 26.6377 18.6692 26.5566 18.8402L26.4904 18.9864L26.4814 21.7081L26.4754 24.433L26.7759 24.4205C27.1787 24.4019 27.2869 24.4454 27.5273 24.716C27.6265 24.828 27.7257 24.9586 27.7497 25.0022C27.8309 25.1577 28.0112 25.4874 28.0863 25.6119C28.1254 25.6803 28.1855 25.786 28.2186 25.8451C28.2546 25.9042 28.3208 26.0193 28.3658 26.1002C28.4139 26.178 28.4861 26.3055 28.5281 26.3802C28.5702 26.4517 28.6393 26.5792 28.6844 26.6601C28.7656 26.8125 28.8888 26.9338 28.9579 26.9338C29.012 26.9338 29.1112 27.0738 29.1352 27.1827C29.1563 27.2822 29.2555 27.3289 29.4658 27.3351C29.532 27.3351 29.6882 27.3444 29.8115 27.3569L30.0399 27.3755L30.1811 27.2076C30.2623 27.1173 30.4156 26.9432 30.5238 26.8218C30.632 26.6974 30.7462 26.5575 30.7762 26.5108C30.8303 26.4237 30.8333 26.2931 30.8333 22.5667V18.7127L30.7672 18.6007C30.6891 18.4639 30.5328 18.2866 30.4907 18.2866C30.4727 18.2866 30.4246 18.2586 30.3825 18.2244C30.3104 18.1653 30.2563 18.1653 29.2555 18.1684C28.6784 18.1715 28.0412 18.1839 27.8429 18.1933Z" fill="black"/>
<path d="M26.6407 24.8C26.5926 24.8249 26.5054 24.8902 26.4544 24.9493C26.3492 25.0613 26.0366 25.7456 25.8533 26.2651C25.7811 26.4672 25.712 26.6041 25.6579 26.6601C25.5858 26.7285 25.5768 26.7565 25.6008 26.8063C25.6248 26.8498 25.6188 26.9121 25.5737 27.0458C25.4896 27.2915 25.4385 27.3693 25.3483 27.3693C25.3063 27.3693 25.2732 27.3724 25.2732 27.3786C25.2732 27.3817 25.2852 27.4315 25.3003 27.4844C25.3333 27.5964 25.2792 27.8514 25.1981 27.979C25.162 28.0381 25.135 28.0505 25.0718 28.035C25.0027 28.0163 24.9967 28.0194 25.0147 28.0723C25.0508 28.1625 25.0718 28.3833 25.0538 28.4642C25.0418 28.5046 24.9757 28.5762 24.8975 28.6259C24.7923 28.6944 24.7653 28.7286 24.7833 28.7659C24.7953 28.7939 24.8074 28.9028 24.8074 29.0085C24.8074 29.2418 24.7322 29.3694 24.588 29.3849C24.4768 29.3974 24.4798 29.3911 24.5369 29.5902C24.609 29.8328 24.597 29.8795 24.4617 29.951C24.3986 29.9852 24.3235 30.0132 24.2964 30.0132C24.2393 30.0132 24.2393 30.0475 24.2934 30.2621C24.3445 30.458 24.3295 30.486 24.1612 30.5389C24.0199 30.5825 24.0079 30.6385 24.1041 30.8438C24.1401 30.9184 24.1642 30.9837 24.1582 30.9899C24.1522 30.9931 24.047 31.0553 23.9268 31.1299C23.7795 31.217 23.7104 31.2792 23.7164 31.3103C23.7224 31.3383 23.7885 31.4036 23.8666 31.4565C23.9448 31.5094 24.0079 31.5592 24.0079 31.5685C24.0109 31.5778 23.9658 31.6152 23.9117 31.6556C23.7404 31.7738 23.3046 32.1595 23.3106 32.1813C23.3166 32.1937 23.3888 32.2062 23.4759 32.2124C23.7705 32.231 23.7855 32.2839 23.5391 32.4363C23.3407 32.5545 22.9289 32.8656 22.9289 32.8967C22.9289 32.906 22.9951 32.906 23.0762 32.8967C23.2565 32.8749 23.3557 32.8998 23.3437 32.962C23.3377 32.9869 23.2475 33.0647 23.1393 33.13C22.971 33.2389 22.6584 33.4877 22.2978 33.805C22.2407 33.8547 22.2016 33.9076 22.2136 33.9169C22.2257 33.9294 22.3489 33.9232 22.4931 33.8983C22.6344 33.8765 22.7576 33.8703 22.7727 33.8827C22.7847 33.8952 22.7396 33.9512 22.6735 34.004C22.4601 34.1782 22.2076 34.4364 21.9191 34.7786C21.7628 34.959 21.6366 35.1176 21.6366 35.1269C21.6366 35.1549 21.8891 35.1487 22.1325 35.1145C22.2467 35.0989 22.3489 35.0927 22.3549 35.1021C22.3639 35.1083 22.3158 35.1736 22.2497 35.2483C22.0063 35.5126 21.4262 36.253 21.4262 36.2965C21.4262 36.3121 21.4442 36.3276 21.4653 36.3276C21.5464 36.3276 22.0093 36.2654 22.0604 36.2498C22.1475 36.2218 22.1295 36.2747 21.9882 36.4894C21.9161 36.5982 21.7839 36.8097 21.6967 36.9622L21.5374 37.2359L21.6636 37.9575C21.7358 38.3526 21.8289 38.9 21.877 39.1737C21.9251 39.4475 22.0183 39.9762 22.0844 40.3464C22.1535 40.7197 22.2076 41.0556 22.2076 41.096C22.2076 41.1396 22.2557 41.2142 22.3309 41.2889C22.5052 41.4631 23.0792 42.1567 23.5751 42.7944C24.1882 43.5845 25.2942 44.9158 25.3994 44.9966C25.4475 45.034 25.5858 45.0868 25.706 45.1148C25.8232 45.1459 26.1628 45.2361 26.4604 45.3201C26.7579 45.4041 27.0554 45.485 27.1216 45.5036C27.1877 45.5192 27.4642 45.597 27.7377 45.6716C28.0112 45.7494 28.3688 45.8458 28.5341 45.8925C28.6994 45.936 28.8768 45.9951 28.9309 46.0231L29.03 46.0698L29.562 45.5472C29.8565 45.2579 30.3464 44.7696 30.653 44.4616C31.2481 43.8613 32.315 42.8224 33.1926 41.9888C33.4901 41.7057 33.7967 41.4102 33.8778 41.3324L34.0191 41.1894L34.0071 40.4148C33.9981 39.9887 33.989 39.2453 33.983 38.76L33.977 37.8766L34.2325 37.7771C34.6683 37.6091 34.8486 37.4692 35.074 37.1208C35.2634 36.8315 35.3475 36.6449 35.3265 36.5516C35.3115 36.4738 35.3325 36.4427 35.5188 36.2685C35.6661 36.1348 35.7773 35.9948 35.8855 35.805C35.9727 35.6557 36.0809 35.4753 36.1259 35.4069C36.2702 35.186 36.5076 34.6697 36.5587 34.4644C36.5858 34.3555 36.6038 34.2187 36.5978 34.1533C36.5888 34.0538 36.5707 34.032 36.4385 33.9574C36.3574 33.9107 36.0117 33.7583 35.6781 33.6214C34.8396 33.2762 33.6584 32.7038 33.6344 32.6323C33.6314 32.6168 33.6524 32.595 33.6855 32.5856C33.7757 32.5608 33.8418 32.399 33.8388 32.1968C33.8358 32.1004 33.8358 31.9573 33.8358 31.8827C33.8358 31.7645 33.8207 31.724 33.7216 31.6152C33.5863 31.4627 33.5442 31.3477 33.418 30.794C33.3158 30.3398 33.2557 30.1999 33.0033 29.8048L32.835 29.5404L32.844 29.2076C32.853 28.8312 32.8169 28.2838 32.7117 27.1827C32.6727 26.7627 32.6306 26.3304 32.6216 26.2184C32.5494 25.2977 32.4352 24.9929 32.1647 24.9929C32.0776 24.9929 32.0385 25.0146 31.9574 25.1111C31.9003 25.1795 31.8281 25.3101 31.7951 25.4066C31.6929 25.6834 31.4464 26.1593 31.2571 26.4393C31.0888 26.6912 30.6139 27.2698 30.2533 27.6617C30.091 27.839 30.0819 27.8452 30.0278 27.7954C29.9888 27.7581 29.9437 27.7488 29.8776 27.7612C29.8205 27.7737 29.7634 27.7674 29.7393 27.7457C29.7183 27.727 29.6612 27.7208 29.6041 27.7301C29.55 27.7426 29.4929 27.7363 29.4688 27.7115C29.4418 27.6928 29.3967 27.6835 29.3606 27.6959C29.3246 27.7083 29.2554 27.699 29.2074 27.6804C29.1382 27.6492 29.1112 27.6492 29.0721 27.6835C29.033 27.7177 29.015 27.7083 28.9489 27.6244C28.9098 27.5684 28.8497 27.5248 28.8166 27.5248C28.7535 27.5248 28.7415 27.4626 28.7926 27.4097C28.8136 27.388 28.8197 27.3506 28.8076 27.3226C28.7926 27.2791 28.7806 27.276 28.7445 27.3071C28.7205 27.3289 28.6994 27.332 28.6994 27.3164C28.6994 27.3009 28.6453 27.2107 28.5762 27.1173C28.5101 27.024 28.2005 26.5077 27.888 25.9696C27.5784 25.4314 27.2899 24.9586 27.2508 24.9213C27.0945 24.7689 26.824 24.716 26.6407 24.8ZM27.1125 25.5559C27.2388 25.6336 27.356 25.8389 27.6686 26.5139C27.9631 27.1485 28.0953 27.5497 28.1284 27.9292L28.1464 28.1625L28.2216 28.007L28.2937 27.8514L28.3027 28.0629C28.3087 28.1811 28.2997 28.2931 28.2817 28.3118C28.2666 28.3367 28.2636 28.4487 28.2787 28.6104C28.2937 28.7566 28.2997 28.8841 28.2907 28.8966C28.2817 28.9121 28.2937 28.9494 28.3117 28.9805C28.3748 29.0863 28.3237 29.133 28.0863 29.1858L27.8579 29.2387L27.7317 29.4596L27.6054 29.6804L27.5393 29.5933C27.4792 29.5124 27.4642 29.5093 27.2688 29.5187L27.0645 29.5311L27.0374 29.4067C26.9893 29.1858 26.8962 28.8841 26.8601 28.8406C26.803 28.7659 26.8601 28.7597 26.9683 28.8281C27.0254 28.8655 27.1306 28.9681 27.2027 29.0552C27.2718 29.1423 27.335 29.1983 27.338 29.1827C27.344 29.1641 27.3079 29.0428 27.2568 28.909C27.2057 28.7753 27.1697 28.6508 27.1757 28.6322C27.1817 28.6135 27.2748 28.7348 27.38 28.9059C27.4852 29.0739 27.5754 29.1983 27.5784 29.1827C27.5844 29.1672 27.5423 29.049 27.4852 28.9214C27.3951 28.713 27.3289 28.514 27.2718 28.2589C27.2358 28.0909 27.3319 28.2216 27.4221 28.4642C27.5243 28.7348 27.5574 28.6944 27.4732 28.402C27.4371 28.2869 27.3951 28.0754 27.377 27.9292C27.2989 27.3133 27.1276 26.9338 26.8631 26.7907C26.785 26.7503 26.7669 26.7503 26.6858 26.7939C26.5836 26.8498 26.4363 27.0956 26.3702 27.3226C26.283 27.6181 26.253 28.0225 26.2891 28.3958C26.3221 28.7348 26.3221 28.7442 26.25 28.8903C26.1057 29.1858 26.0606 29.6431 26.1207 30.1532C26.1268 30.1968 26.0967 30.231 26.0186 30.2714C25.8503 30.3554 25.8743 30.3958 26.0847 30.3803C26.1839 30.3741 26.265 30.3772 26.265 30.3896C26.265 30.4332 25.9224 30.7038 25.688 30.8469C25.5587 30.9215 25.4535 30.9993 25.4535 31.0117C25.4535 31.049 25.4505 31.0522 25.709 30.9277C25.8352 30.8686 25.9494 30.8251 25.9584 30.8375C25.9705 30.85 25.9524 30.8717 25.9194 30.8904C25.8142 30.9495 25.6038 31.1952 25.6038 31.2575C25.6038 31.3477 25.5647 31.3352 25.4806 31.217C25.3243 30.9993 25.2942 30.9153 25.3333 30.7815C25.3634 30.6789 25.3604 30.654 25.3183 30.6229C25.2792 30.5949 25.2732 30.542 25.2792 30.3865L25.2882 30.1843L25.4175 30.175C25.5737 30.1625 25.5707 30.1128 25.4084 30.0537C25.2221 29.9884 25.2071 29.895 25.3664 29.8079C25.4145 29.7831 25.4535 29.7395 25.4535 29.7115C25.4535 29.6835 25.4175 29.5093 25.3754 29.3258C25.3333 29.1423 25.3033 28.9463 25.3093 28.8872C25.3183 28.7908 25.3243 28.797 25.4054 29.0023C25.5197 29.2792 25.709 29.6151 25.8382 29.7613C25.8953 29.8235 25.9314 29.8515 25.9224 29.8266C25.9134 29.8017 25.8503 29.6338 25.7811 29.4533C25.6579 29.1392 25.6549 29.1143 25.6579 28.8001C25.6609 28.3491 25.9344 26.8592 25.9855 27.0178C25.9945 27.0396 25.9645 27.2915 25.9254 27.5777C25.8232 28.2776 25.7751 28.7317 25.7901 28.8623C25.7962 28.9526 25.8112 28.9183 25.8653 28.6757C25.9044 28.514 25.9615 28.1843 25.9945 27.9479C26.0997 27.192 26.256 26.5575 26.4664 26.0224C26.6467 25.5621 26.8631 25.4066 27.1125 25.5559ZM32.4382 26.4237C32.4382 26.7627 32.4352 27.0987 32.4322 27.1671C32.4292 27.2355 32.4292 27.3693 32.4292 27.4626C32.4322 27.5559 32.4322 27.6959 32.4292 27.7737C32.4262 27.8514 32.4262 27.9634 32.4292 28.0225C32.4292 28.0816 32.4292 28.1936 32.4262 28.2714C32.4262 28.3491 32.4322 28.486 32.4442 28.5793C32.4563 28.6819 32.4472 28.797 32.4262 28.8748C32.4052 28.9463 32.3841 29.021 32.3781 29.0459C32.3601 29.1081 32.2339 29.0148 32.2218 28.9277C32.2128 28.8655 32.1978 28.8592 32.0956 28.8779C31.9273 28.9059 31.9063 28.8499 31.9423 28.4518C31.9934 27.9199 32.2609 26.1904 32.3391 25.898C32.3571 25.8296 32.3841 25.7829 32.4052 25.7923C32.4322 25.8016 32.4412 25.9727 32.4382 26.4237ZM31.2901 29.0894C31.5636 29.2605 31.8101 29.6275 31.9934 30.1252C32.0355 30.2403 32.1166 30.5607 32.1737 30.8344C32.3451 31.668 32.4503 31.9262 32.7448 32.2559C32.9852 32.5172 33.2647 32.679 34.3347 33.1704C35.1221 33.5312 35.3415 33.6432 35.3415 33.6837C35.3415 33.7023 35.2694 33.7148 35.1822 33.7148C34.9628 33.7148 34.7013 33.7925 34.4759 33.9201C34.2866 34.032 34.0492 34.2404 34.0492 34.2964C34.0492 34.3151 34.0972 34.3929 34.1544 34.4706C34.2115 34.5484 34.2595 34.6293 34.2595 34.6479C34.2595 34.679 34.3407 34.8066 34.6442 35.2483C34.8065 35.4847 34.8486 35.522 35.2784 35.7988L35.4377 35.9046L35.3535 35.9668C35.3054 36.0041 35.2153 36.0788 35.1522 36.1379C35.071 36.2125 35.0229 36.2374 34.9748 36.225C34.9388 36.2125 34.8877 36.225 34.8606 36.2467C34.8005 36.2996 34.2175 36.5391 33.7937 36.6791C32.9522 36.9622 32.6997 36.9995 32.3901 36.8906C32.3 36.8595 31.9003 36.6698 31.5065 36.4738C30.647 36.0477 30.4907 35.9854 30.2773 35.9854C30.1391 35.9854 30.103 35.9979 30.0248 36.0788C29.8686 36.2405 29.8716 36.4178 30.0339 36.6013C30.118 36.7009 30.7972 37.127 30.9806 37.1986C31.236 37.3012 32.5855 37.5407 32.8981 37.5407C33.1716 37.5407 33.4511 37.4412 34.0341 37.1332C34.5721 36.8502 35.1191 36.6169 35.1552 36.6542C35.1792 36.6791 34.9598 37.1301 34.8606 37.2608C34.8156 37.3199 34.7013 37.4163 34.6112 37.4723C34.2385 37.7056 33.3669 37.9451 32.8951 37.9451C32.6937 37.9451 31.5847 37.8207 31.0737 37.7398C30.3434 37.6278 30.2232 37.5905 29.8054 37.351C29.5891 37.2265 29.3306 37.0897 29.2284 37.0492C29.012 36.9559 28.6994 36.9248 28.5281 36.9808C28.4109 37.0213 28.2486 37.155 28.2486 37.211C28.2486 37.2328 28.4019 37.2452 28.7054 37.2452C29.1412 37.2452 29.571 37.2981 29.571 37.3541C29.571 37.3665 29.4809 37.4318 29.3697 37.4972C29.1593 37.6216 28.8798 37.8766 28.8798 37.9389C28.8798 37.9575 29.033 38.0913 29.2194 38.2344C29.8295 38.7072 30.1841 39.1831 30.3584 39.7741C30.4396 40.0509 30.4606 40.925 30.4035 41.631C30.3645 42.1101 30.3615 42.1225 30.3284 41.9888C30.1811 41.4164 29.9888 40.7974 29.9617 40.8285C29.9377 40.8596 29.8535 41.3635 29.8115 41.7555C29.7934 41.9079 29.7544 42.2252 29.7213 42.4553C29.6852 42.6855 29.6431 43.0494 29.6191 43.2641C29.577 43.6995 29.58 43.6995 29.4388 43.2267C29.3937 43.0774 29.3456 42.9468 29.3336 42.9406C29.3186 42.9312 29.3005 43.0152 29.2885 43.1303C29.2765 43.2423 29.2494 43.4258 29.2254 43.5409C29.2044 43.6529 29.1623 43.9266 29.1352 44.1506C29.0871 44.558 28.9429 45.4134 28.9218 45.4383C28.9158 45.4445 28.8106 45.3543 28.6904 45.2361C28.5702 45.1179 28.1915 44.754 27.8459 44.4305C27.2207 43.8395 26.6798 43.2579 25.4986 41.911C25.153 41.516 24.612 40.9218 24.2994 40.589C23.6743 39.9296 23.2776 39.4723 23.3016 39.4475C23.3106 39.4381 23.3948 39.4817 23.491 39.5408C23.5871 39.5999 23.8156 39.7274 24.0019 39.8238C24.3145 39.9856 24.4948 40.0944 25.5136 40.7445C26.4664 41.3511 26.8691 41.5751 27.4642 41.8239C27.8278 41.9732 27.909 41.995 28.2005 42.023C28.3778 42.0416 28.5311 42.0479 28.5401 42.0385C28.5582 42.023 28.3989 41.8986 27.6625 41.3667C27.35 41.1396 27.0104 40.8907 26.9112 40.813C26.6557 40.6108 25.9645 39.998 25.6669 39.7056C25.0839 39.1302 23.3828 37.239 23.3798 37.1581C23.3798 37.1457 23.503 37.1986 23.6563 37.2794C24.1582 37.5407 24.8464 37.8362 24.8795 37.8051C24.8915 37.7896 24.6962 37.4692 24.5218 37.2297C24.4557 37.1395 24.4016 37.0524 24.4016 37.0399C24.4016 37.0088 24.7983 37.2265 25.4235 37.5967C26.0276 37.9575 27.5363 38.9871 27.9781 39.3417C28.0983 39.4412 28.1584 39.4786 28.1584 39.4599C28.1584 39.4506 28.0893 39.3573 28.0052 39.2484C27.5063 38.6014 26.9623 37.3945 26.7759 36.5236C26.6948 36.1379 26.6978 36.0912 26.806 36.0508C26.8571 36.0352 26.8962 36.0103 26.8962 36.001C26.8962 35.9823 26.5385 36.0072 26.4453 36.0352C26.4213 36.0414 26.3792 36.0321 26.3552 36.0166C26.3161 35.9886 26.3191 35.9761 26.3792 35.9263C26.4153 35.8921 26.4453 35.8517 26.4453 35.833C26.4453 35.7802 26.2319 35.6962 26.0697 35.6868C25.9885 35.6837 25.9194 35.6682 25.9194 35.6526C25.9194 35.6122 26.3311 35.3976 26.4513 35.3758C26.5145 35.3633 26.5595 35.3447 26.5505 35.3353C26.5445 35.3229 26.4363 35.2576 26.3131 35.1923C26.1899 35.1269 26.0817 35.0554 26.0727 35.0305C26.0516 34.9807 26.0847 34.9807 26.3101 35.0367C26.5205 35.0896 26.6257 35.0958 26.6257 35.0554C26.6257 34.9994 26.3011 34.8999 26.0065 34.8657C25.3754 34.7941 24.8825 34.7008 24.8825 34.651C24.8825 34.6386 24.9666 34.6044 25.0688 34.5733C25.3393 34.4955 25.8863 34.2684 26.4303 34.004C26.8781 33.7894 26.9262 33.7552 27.1216 33.5499C27.2388 33.4255 27.4912 33.1144 27.6836 32.8594C27.8789 32.6012 28.0893 32.3306 28.1554 32.2528L28.2757 32.1128L28.2787 33.1455C28.2787 34.0134 28.2847 34.1813 28.3207 34.1813C28.4981 34.1813 30.118 33.8112 30.1691 33.7614C30.1751 33.7521 30.103 33.6774 30.0128 33.5903C29.9197 33.5033 29.7123 33.2762 29.55 33.0833C28.9369 32.3648 28.8377 32.1564 29.0451 32.0164C29.1142 31.9698 29.1262 31.9729 29.3216 32.0911C29.4328 32.1595 29.6492 32.3306 29.7964 32.4706C29.9467 32.6105 30.136 32.7754 30.2232 32.8345L30.3765 32.9434L30.7642 32.8625C30.9746 32.8189 31.1819 32.7816 31.221 32.7754L31.2962 32.7661L31.2901 33.186C31.2841 33.6152 31.3052 33.8112 31.3623 33.8299C31.3803 33.8361 31.4104 33.8019 31.4314 33.7552C31.5276 33.5375 31.8371 33.1113 32.1166 32.8065C32.288 32.6261 32.4262 32.4674 32.4262 32.455C32.4262 32.4457 32.3992 32.3835 32.3691 32.3213C32.297 32.1751 32.2489 31.9822 32.1076 31.2917C31.9724 30.6105 31.8642 30.2652 31.6688 29.8888C31.4855 29.528 31.3893 29.388 31.194 29.1641C31.1128 29.0708 31.0437 28.9868 31.0437 28.9743C31.0437 28.9463 31.1339 28.9899 31.2901 29.0894ZM31.1459 30.0443C31.2901 30.1003 31.3142 30.1252 31.3683 30.2559C31.4584 30.4705 31.5546 30.8686 31.5757 31.105C31.5967 31.3414 31.5576 31.4441 31.3893 31.5965C31.191 31.7738 30.9445 31.6991 30.8033 31.4161C30.7281 31.2637 30.6019 31.1486 30.4576 31.1019C30.2983 31.0522 30.2442 30.9962 30.1841 30.8375C30.1391 30.7131 30.1391 30.6976 30.1871 30.5918C30.2503 30.458 30.4697 30.2496 30.641 30.1625L30.7612 30.1003L30.9175 30.1812C31.1399 30.2963 31.1699 30.3616 31.1609 30.6696C31.1489 30.9371 31.1789 30.9993 31.2511 30.878C31.3082 30.7847 31.2992 30.5078 31.236 30.3678C31.209 30.3087 31.1278 30.2092 31.0557 30.147C30.8483 29.9728 30.8784 29.9417 31.1459 30.0443ZM33.0123 30.4332C33.1986 30.6167 33.2166 30.6478 33.2317 30.7847C33.2407 30.8966 33.2197 31.0117 33.1475 31.245C33.0604 31.525 33.0513 31.5747 33.0694 31.8173C33.0784 31.9635 33.0964 32.1222 33.1054 32.1751C33.1475 32.3804 33.0453 32.1813 32.844 31.6587C32.5885 30.9899 32.5765 30.8438 32.7478 30.3616C32.7748 30.2901 32.7989 30.231 32.8019 30.231C32.8049 30.231 32.9011 30.3212 33.0123 30.4332ZM30.4636 31.5623C30.6139 31.6121 30.9235 32.1253 30.9235 32.3337C30.9235 32.3741 30.5718 32.4706 30.4336 32.4706C30.3013 32.4706 29.9738 32.3492 29.8445 32.2528C29.6912 32.1377 29.6462 32.032 29.6972 31.9169C29.7544 31.7987 30.0038 31.6276 30.1841 31.5809C30.3584 31.5374 30.3735 31.5374 30.4636 31.5623ZM33.3609 31.6991C33.424 31.7178 33.4841 31.7582 33.4931 31.7862C33.5022 31.8142 33.5563 31.8609 33.6134 31.8889C33.6735 31.9169 33.7276 31.9635 33.7366 31.9884C33.7727 32.0786 33.7125 32.2622 33.6224 32.3555C33.5442 32.4363 33.5352 32.4612 33.5683 32.511C33.6284 32.6105 33.5863 32.6012 33.415 32.4737C33.2197 32.3275 33.1746 32.2435 33.1535 31.9667C33.1325 31.6525 33.1475 31.6307 33.3609 31.6991ZM35.3716 34.2715C35.1882 34.3338 35.1642 34.3306 35.2213 34.2591C35.2453 34.228 35.3054 34.2124 35.3986 34.2156L35.5369 34.2187L35.3716 34.2715ZM35.1912 34.8034C35.1912 34.819 35.1702 34.8346 35.1431 34.8346C35.1191 34.8346 35.1071 34.819 35.1161 34.8034C35.1251 34.7848 35.1462 34.7723 35.1642 34.7723C35.1792 34.7723 35.1912 34.7848 35.1912 34.8034ZM26.3371 35.298C26.3462 35.3136 26.3281 35.3322 26.2951 35.3416C26.235 35.3571 26.1899 35.326 26.2259 35.2887C26.253 35.2607 26.3191 35.2669 26.3371 35.298ZM35.7382 35.8206C35.6841 35.9232 35.2243 36.3649 35.1852 36.3525C35.1161 36.3276 35.1431 36.2778 35.3084 36.0943C35.4617 35.9263 35.7262 35.7211 35.7563 35.749C35.7623 35.7553 35.7533 35.7895 35.7382 35.8206Z" fill="black"/>
<path d="M33.1866 34.9808C33.0994 34.9932 33.0874 35.0056 33.0874 35.0865C33.0874 35.1892 33.0934 35.1892 33.3459 35.1425C33.5352 35.1083 33.6705 35.0367 33.6434 34.9901C33.6254 34.959 33.3819 34.9559 33.1866 34.9808Z" fill="black"/>
<path d="M32.6216 35.0865C32.5885 35.1861 32.6426 35.2172 32.8139 35.1923C32.9522 35.1736 33.0273 35.1176 33.0273 35.0399C33.0273 35.0305 32.9402 35.0212 32.835 35.0212C32.6637 35.0212 32.6396 35.0305 32.6216 35.0865Z" fill="black"/>
<path d="M32.1918 35.0803C32.1678 35.0958 32.1557 35.1332 32.1617 35.1643C32.1768 35.2545 32.4022 35.2638 32.4833 35.1798C32.5194 35.1425 32.5464 35.099 32.5464 35.0834C32.5464 35.0461 32.2459 35.043 32.1918 35.0803Z" fill="black"/>
<path d="M31.8912 35.1674C31.9032 35.2887 32.0114 35.3012 32.0595 35.1923C32.1076 35.0834 32.1106 35.0834 31.9874 35.0834C31.8882 35.0834 31.8822 35.0896 31.8912 35.1674Z" fill="black"/>
<path d="M33.0513 35.4691C33.0333 35.5127 33.0273 35.5655 33.0363 35.5935C33.0694 35.6837 33.3248 35.5438 33.3278 35.4318C33.3278 35.41 33.2828 35.3945 33.2076 35.3945C33.1084 35.3945 33.0814 35.4069 33.0513 35.4691Z" fill="black"/>
<path d="M32.1948 35.4473C32.1737 35.4536 32.1557 35.4971 32.1557 35.5375C32.1557 35.6246 32.2459 35.6402 32.318 35.5624C32.4172 35.4629 32.336 35.3851 32.1948 35.4473Z" fill="black"/>
<path d="M32.5885 35.4722C32.5584 35.5531 32.6005 35.6122 32.6907 35.6122C32.7868 35.6122 32.8469 35.5624 32.8469 35.4815C32.8469 35.438 32.8229 35.4256 32.7267 35.4256C32.6456 35.4256 32.5975 35.4411 32.5885 35.4722Z" fill="black"/>
<path d="M33.5442 35.4629C33.5232 35.4847 33.5082 35.5251 33.5082 35.5562C33.5082 35.606 33.5232 35.6122 33.6224 35.5935C33.7546 35.5686 33.7937 35.5407 33.7697 35.4753C33.7456 35.4162 33.5953 35.41 33.5442 35.4629Z" fill="black"/>
<path d="M34.0101 35.5687C33.986 35.5935 34.0131 35.6433 34.0521 35.6433C34.0672 35.6433 34.0792 35.6215 34.0792 35.5967C34.0792 35.55 34.0431 35.5344 34.0101 35.5687Z" fill="black"/>
<path d="M34.1453 35.5873C34.1633 35.6433 34.2295 35.6526 34.2295 35.5998C34.2295 35.5718 34.2084 35.55 34.1814 35.55C34.1543 35.55 34.1393 35.5655 34.1453 35.5873Z" fill="black"/>
<path d="M32.5374 35.8206C32.4923 35.8641 32.5164 35.9543 32.5735 35.9543C32.6396 35.9543 32.7087 35.8766 32.6817 35.8299C32.6606 35.7957 32.5675 35.7864 32.5374 35.8206Z" fill="black"/>
<path d="M33.5172 35.8517C33.4661 35.8704 33.4691 35.9543 33.5202 35.9543C33.5713 35.9543 33.6344 35.8797 33.6074 35.8517C33.5863 35.8268 33.5713 35.8268 33.5172 35.8517Z" fill="black"/>
<path d="M34.5901 35.861C34.5661 35.8766 34.5571 35.8984 34.5691 35.9108C34.5811 35.9232 34.6082 35.917 34.6262 35.8984C34.6713 35.8517 34.6472 35.8237 34.5901 35.861Z" fill="black"/>
<path d="M32.9882 35.8828C32.9431 35.9295 32.9702 35.9854 33.0393 35.9854C33.1445 35.9854 33.2076 35.9543 33.2076 35.9046C33.2076 35.861 33.0273 35.8424 32.9882 35.8828Z" fill="black"/>
<path d="M33.8989 35.9077C33.8989 35.9326 33.9109 35.9543 33.9259 35.9543C33.9409 35.9543 33.959 35.9326 33.971 35.9077C33.98 35.8797 33.971 35.861 33.9439 35.861C33.9199 35.861 33.8989 35.8828 33.8989 35.9077Z" fill="black"/>
<path d="M34.1994 35.9108C34.1994 35.9388 34.2144 35.9544 34.2355 35.9481C34.2896 35.9295 34.2986 35.861 34.2475 35.861C34.2204 35.861 34.1994 35.8828 34.1994 35.9108Z" fill="black"/>
<path d="M35.0259 36.0165C34.9658 36.0819 34.9538 36.1099 34.9839 36.1099C35.0289 36.1099 35.1612 35.9854 35.1612 35.945C35.1612 35.8983 35.1101 35.9263 35.0259 36.0165Z" fill="black"/>
<path d="M34.53 36.141C34.53 36.1565 34.5451 36.1721 34.5601 36.1721C34.5781 36.1721 34.5901 36.1565 34.5901 36.141C34.5901 36.1223 34.5781 36.1099 34.5601 36.1099C34.5451 36.1099 34.53 36.1223 34.53 36.141Z" fill="black"/>
<path d="M32.9371 36.2654C32.9371 36.281 32.9642 36.2965 32.9972 36.2965C33.0303 36.2965 33.0574 36.281 33.0574 36.2654C33.0574 36.2467 33.0303 36.2343 32.9972 36.2343C32.9642 36.2343 32.9371 36.2467 32.9371 36.2654Z" fill="black"/>
<path d="M33.8387 36.3152C33.8387 36.3432 33.8538 36.3587 33.8748 36.3525C33.9289 36.3338 33.9379 36.2654 33.8868 36.2654C33.8598 36.2654 33.8387 36.2872 33.8387 36.3152Z" fill="black"/>
<path d="M33.4391 36.3183C33.403 36.3525 33.415 36.3898 33.4631 36.3898C33.4871 36.3898 33.5082 36.3681 33.5082 36.3432C33.5082 36.2934 33.4721 36.281 33.4391 36.3183Z" fill="black"/>
<path d="M16.6776 28.458C16.2598 28.5389 15.9893 28.5824 15.6407 28.6291C14.8743 28.7286 13.9997 28.9152 13.6721 29.049C13.5489 29.0988 13.3655 29.1641 13.2664 29.1921C12.8516 29.3103 12.5781 29.4938 12.4339 29.7489L12.3647 29.8733L12.3557 37.6029C12.3497 44.7354 12.3527 45.3419 12.3978 45.4726C12.4579 45.6436 12.53 45.7276 12.7043 45.8334L12.8336 45.9142L14.3724 45.8987C15.9773 45.8863 16.0494 45.88 16.3049 45.7432C16.4221 45.681 16.6114 45.4632 16.6655 45.3295C16.7016 45.2393 16.7076 44.303 16.7076 39.0711C16.7076 34.7568 16.7166 32.8625 16.7407 32.735C16.7888 32.4519 16.8699 32.3648 17.1675 32.2684C17.3027 32.2217 17.5101 32.1782 17.6273 32.1688C17.8257 32.1533 17.8587 32.1595 18.0541 32.2528C18.3817 32.4084 18.4959 32.6168 18.541 33.1331C18.556 33.3104 18.571 36.0601 18.571 39.407C18.571 44.2781 18.58 45.3855 18.6131 45.4819C18.6642 45.6405 18.8235 45.8085 18.9888 45.8831C19.124 45.9454 19.1691 45.9454 20.5847 45.9267C22.0573 45.9049 22.3729 45.8831 22.5683 45.7805C22.6945 45.7183 22.947 45.4477 22.989 45.3326C23.0071 45.2828 23.0191 44.7385 23.0191 43.9733V42.6949L22.9169 42.5331C22.8598 42.446 22.7907 42.3527 22.7606 42.3278C22.7336 42.3029 22.6554 42.2096 22.5923 42.1194C22.5262 42.0292 22.3489 41.8177 22.1926 41.6497C21.9011 41.3387 21.847 41.2485 21.847 41.0805C21.847 41.0245 21.8289 40.9032 21.8049 40.8099C21.7808 40.7135 21.7478 40.5362 21.7298 40.418C21.6847 40.1038 21.6366 39.7958 21.5915 39.547C21.5705 39.4257 21.5374 39.2297 21.5194 39.1115C21.4983 38.9902 21.4172 38.5485 21.336 38.1286C21.2519 37.7087 21.1858 37.3199 21.1858 37.2639C21.1858 37.1519 21.2429 37.0119 21.3511 36.8595C21.4412 36.732 21.4472 36.6698 21.3691 36.6698C21.2819 36.6698 21.1287 36.5236 21.1016 36.4116C21.0535 36.2187 21.1347 36.0414 21.4352 35.69C21.5494 35.5531 21.5735 35.4878 21.5073 35.4878C21.4863 35.4878 21.4292 35.4442 21.3811 35.3945C21.306 35.3136 21.294 35.2731 21.294 35.1301C21.294 34.9714 21.303 34.9497 21.4292 34.8128C21.5043 34.7288 21.6456 34.5639 21.7478 34.4426L21.9341 34.2218L21.886 34.0849C21.8019 33.8485 21.841 33.7583 22.1295 33.4939C22.2677 33.3664 22.43 33.2264 22.4871 33.1767C22.5923 33.0958 22.5953 33.0864 22.5773 32.934L22.5593 32.7785L22.7486 32.5857C22.9379 32.399 22.941 32.3928 22.95 32.2062C22.9951 31.385 22.9109 30.906 22.6194 30.3088C22.1896 29.4223 21.5314 28.8904 20.5997 28.6788C19.5688 28.4424 19.5748 28.4424 18.1352 28.4362C17.4079 28.4362 16.7527 28.4455 16.6776 28.458Z" fill="black"/>
<path d="M35.2964 28.7379C34.9538 28.7659 34.8606 28.7908 34.6893 28.9028C34.5691 28.9837 34.3918 29.2076 34.3257 29.3694C34.2866 29.4658 34.2716 32.5203 34.3136 32.5825C34.3257 32.6012 34.3888 32.6416 34.4549 32.6728C34.521 32.7007 34.7043 32.7878 34.8606 32.8656C35.0169 32.9434 35.3956 33.1113 35.6992 33.2358C36.4445 33.5499 36.6759 33.6712 36.8172 33.8299C36.9344 33.9605 36.9344 33.9636 36.9344 34.2156C36.9344 34.3555 36.9134 34.5453 36.8863 34.6417C36.8292 34.8439 36.6278 35.2607 36.4535 35.5344C36.3904 35.6371 36.3002 35.7833 36.2582 35.861C36.2161 35.9388 36.156 36.0508 36.1229 36.1099C36.0899 36.169 35.9847 36.2996 35.8855 36.4054C35.7893 36.508 35.6992 36.6324 35.6871 36.6853C35.6541 36.8409 35.5729 36.9995 35.3295 37.3728C35.2273 37.5283 34.8486 37.9171 34.7554 37.9575C34.7074 37.9824 34.5992 38.0291 34.515 38.0633L34.3647 38.1286L34.3497 39.771C34.3407 40.673 34.3227 41.4351 34.3106 41.4631C34.2746 41.5377 34.3407 42.4616 34.4068 42.8131C34.4369 42.9841 34.494 43.2019 34.53 43.2952C34.5631 43.3885 34.6352 43.5845 34.6863 43.7307C34.8216 44.1195 34.9929 44.4554 35.1552 44.642C35.2333 44.7354 35.3505 44.8753 35.4136 44.9562C35.5489 45.1304 36.0718 45.541 36.2882 45.6467C36.3724 45.6872 36.5677 45.7712 36.724 45.8303C36.8803 45.8894 37.0696 45.9702 37.1448 46.0045C37.2169 46.0387 37.3942 46.0978 37.5355 46.132C37.7729 46.1911 37.9082 46.1973 39.3839 46.2097C41.2893 46.2284 41.7311 46.1973 42.227 46.0169C42.2992 45.9889 42.6358 45.8894 42.9724 45.796C44.1084 45.4788 44.6434 45.1833 44.8508 44.7478L44.9289 44.5892V36.9279C44.9289 30.8718 44.9199 29.2512 44.8929 29.1952C44.8298 29.0832 44.5593 28.797 44.4781 28.7628C44.3759 28.7162 41.5839 28.7286 41.3374 28.7753C41.2382 28.7939 41.118 28.8281 41.0699 28.853C40.9317 28.9277 40.7153 29.1485 40.6582 29.2823C40.6041 29.4005 40.6011 29.668 40.6011 35.5811C40.6011 41.0338 40.5951 41.7835 40.553 41.9857C40.5289 42.1132 40.5019 42.2283 40.4929 42.2407C40.4869 42.2532 40.3426 42.3092 40.1713 42.3651C39.7355 42.5082 39.5161 42.5082 39.2336 42.362C39.0442 42.2625 39.0142 42.2345 38.927 42.0665C38.8759 41.9639 38.8068 41.7897 38.7768 41.6777C38.7257 41.488 38.7227 41.1396 38.7076 35.3011L38.6926 29.1268L38.6054 28.9992C38.5543 28.9308 38.4672 28.8375 38.4101 28.797L38.3019 28.7224L36.9494 28.7193C36.2071 28.7162 35.4617 28.7255 35.2964 28.7379Z" fill="black"/>
<path d="M30.0188 45.5939C29.1172 46.5021 29.1743 46.471 28.6934 46.3311C28.5402 46.2844 28.2847 46.2129 28.1284 46.1662C27.9721 46.1227 27.7407 46.0542 27.6175 46.0169C27.4943 45.9765 27.2989 45.9205 27.1817 45.8925C27.0675 45.8645 26.8841 45.8116 26.779 45.7805C26.6738 45.7494 26.5626 45.7214 26.5325 45.7214C26.4754 45.7214 26.4754 45.7992 26.4754 48.8755C26.4754 51.0186 26.4844 52.0606 26.5085 52.1197C26.5475 52.2317 26.794 52.493 26.9172 52.5552C27.0044 52.5956 27.1997 52.5988 28.48 52.5863C30.2683 52.5677 30.3374 52.5552 30.6169 52.2442C30.8514 51.9798 30.8333 52.2846 30.8333 48.3467C30.8333 46.4057 30.8243 44.8193 30.8093 44.8193C30.7973 44.8193 30.4396 45.1677 30.0188 45.5939Z" fill="black"/>
</svg>
