<svg width="5704" height="2064" viewBox="0 0 5704 2064" fill="none" xmlns="http://www.w3.org/2000/svg">
<rect width="5703" height="2064" transform="translate(0.726562)" fill="white"/>
<path d="M1908.02 1138.64V1258.57H1991.76V1143.88C1991.76 1132.75 1996.13 1121.99 2004.04 1114.13C2011.86 1106.28 2022.56 1101.79 2033.63 1101.79H2119.51C2159.52 1101.79 2197.94 1085.79 2226.23 1057.26C2254.51 1028.82 2270.42 990.184 2270.42 949.959C2270.42 909.734 2254.51 871.099 2226.23 842.568C2197.94 814.129 2159.52 798.133 2119.42 798.133H1908.02V947.995H1991.76V877.367H2113.83C2132.81 877.367 2150.96 884.944 2164.36 898.415C2177.75 911.886 2185.29 930.127 2185.29 949.211C2185.29 968.294 2177.75 986.536 2164.36 1000.01C2150.96 1013.48 2132.81 1021.05 2113.83 1021.05H2025.16C2009.81 1021.05 1994.55 1024.05 1980.41 1030.04C1966.17 1035.93 1953.34 1044.63 1942.45 1055.57C1931.56 1066.52 1923 1079.52 1917.05 1093.74C1911.09 1107.87 1908.02 1123.21 1908.02 1138.64Z" fill="#1B1340"/>
<path d="M2283.36 1258.57V1075.87C2283.36 1001.32 2326.62 942.008 2413.24 942.008C2427.11 941.821 2440.97 943.317 2454.55 946.591V1021.71C2444.69 1021.05 2436.23 1021.05 2432.22 1021.05C2386.35 1021.05 2366.63 1042.2 2366.63 1085.04V1258.57H2283.36Z" fill="#1B1340"/>
<path d="M2479.49 1103.66C2479.49 1011.98 2548.34 942.102 2644.17 942.102C2740.01 942.102 2808.86 1011.98 2808.86 1103.66C2808.86 1195.33 2740.01 1265.87 2644.17 1265.87C2548.34 1265.87 2479.49 1195.24 2479.49 1103.66ZM2726.79 1103.66C2726.79 1051.55 2692 1014.6 2644.17 1014.6C2596.26 1014.6 2561.55 1051.46 2561.55 1103.66C2561.55 1156.42 2596.35 1192.71 2644.17 1192.71C2692.09 1192.71 2726.79 1156.32 2726.79 1103.66Z" fill="#1B1340"/>
<path d="M3075.15 1103.66C3075.15 1011.98 3144 942.102 3239.83 942.102C3335.57 942.102 3404.42 1011.98 3404.42 1103.66C3404.42 1195.33 3335.57 1265.87 3239.83 1265.87C3144 1265.87 3075.15 1195.24 3075.15 1103.66ZM3322.36 1103.66C3322.36 1051.55 3287.56 1014.6 3239.74 1014.6C3191.91 1014.6 3157.12 1051.46 3157.12 1103.66C3157.12 1156.42 3191.91 1192.71 3239.74 1192.71C3287.56 1192.71 3322.36 1156.32 3322.36 1103.66Z" fill="#1B1340"/>
<path d="M3447.69 1258.57V1082.52C3447.69 1000.76 3499.51 942.009 3592 942.009C3683.83 942.009 3735.66 1000.66 3735.66 1082.52V1258.57H3653.03V1089.06C3653.03 1043.6 3632.66 1015.16 3592 1015.16C3551.34 1015.16 3530.96 1043.51 3530.96 1089.06V1258.57H3447.69Z" fill="#1B1340"/>
<path d="M3050.21 1015.25H2960.33V1130.69C2960.33 1170.91 2974.75 1189.34 3016.06 1189.34C3019.97 1189.34 3029.84 1189.34 3042.3 1188.69V1256.6C3025.28 1261.19 3010.2 1263.9 2993.73 1263.9C2924.23 1263.9 2876.97 1221.71 2876.97 1141.91V1015.25H2821.14V948.646H2835.1C2840.59 948.646 2846.08 947.524 2851.1 945.466C2856.22 943.314 2860.78 940.227 2864.68 936.298C2868.59 932.369 2871.66 927.785 2873.8 922.64C2875.94 917.495 2876.97 912.069 2876.97 906.55V843.78H2960.24V948.646H3050.12V1015.25H3050.21Z" fill="#1B1340"/>
<path d="M3900.23 810.014H4017.2L4126.85 1079.09C4136.62 1101.64 4144.98 1124.65 4152.03 1148.14H4153.16C4160.2 1124.65 4168.57 1101.55 4178.34 1079.09L4287.98 810.014H4404.96V1258.73H4320.21V958.119C4320.12 948.201 4320.59 938.284 4321.62 928.46H4320.21C4317.58 939.033 4314.1 949.418 4309.69 959.429L4188.2 1253.49H4117.92L3996.06 959.429C3991.65 949.324 3987.89 939.033 3984.88 928.46H3983.57C3984.51 938.284 3984.97 948.201 3984.88 958.119V1258.82H3900.23V810.014Z" fill="#6D4AFF"/>
<path d="M4694.81 962.704C4719.34 975.522 4739.63 995.169 4753.25 1019.21C4767.82 1045.32 4775.15 1074.88 4774.58 1104.73V1258.73H4700.36L4695.1 1212.51C4685.42 1229.26 4671.23 1242.91 4654.13 1252.08C4635.81 1261.53 4615.33 1266.3 4594.66 1265.84C4568.25 1266.12 4542.32 1259.1 4519.68 1245.53C4496.75 1231.69 4478.15 1211.85 4465.75 1188.28C4452.22 1162.27 4445.45 1133.36 4446.02 1104.07C4445.64 1075.26 4453.06 1046.91 4467.44 1021.83C4481.53 997.508 4501.92 977.487 4526.63 963.92C4552.19 949.793 4580.94 942.495 4610.16 942.87C4639.57 942.308 4668.69 949.138 4694.81 962.704ZM4667.66 1169.84C4683.82 1154.5 4691.81 1132.89 4691.81 1104.07C4692.84 1080.5 4684.48 1057.48 4668.69 1039.98C4661.18 1032.13 4652.16 1025.95 4642.1 1021.65C4632.05 1017.34 4621.34 1015.19 4610.44 1015.19C4599.54 1015.19 4588.74 1017.34 4578.78 1021.65C4568.72 1025.95 4559.7 1032.13 4552.19 1039.98C4537.16 1057.95 4528.89 1080.59 4528.89 1103.98C4528.89 1127.37 4537.16 1150.01 4552.19 1167.97C4559.61 1176.02 4568.63 1182.29 4578.78 1186.59C4588.83 1190.8 4599.73 1192.95 4610.63 1192.67C4621.15 1192.86 4631.68 1190.9 4641.54 1186.97C4651.22 1183.13 4660.14 1177.24 4667.66 1169.84Z" fill="#6D4AFF"/>
<path d="M4820.34 885.424C4815.36 880.839 4811.41 875.319 4808.69 869.144C4805.96 862.97 4804.65 856.327 4804.74 849.591C4804.65 842.854 4806.06 836.118 4808.69 829.849C4811.41 823.581 4815.36 817.967 4820.34 813.383C4830.21 803.653 4843.55 798.133 4857.45 798.133C4871.36 798.133 4884.7 803.653 4894.57 813.383C4899.54 818.061 4903.49 823.675 4906.12 829.849C4908.75 836.118 4910.16 842.761 4910.07 849.591C4910.16 856.327 4908.85 862.97 4906.12 869.144C4903.49 875.319 4899.54 880.839 4894.57 885.424C4884.61 894.967 4871.26 900.3 4857.45 900.3C4843.55 900.3 4830.3 894.967 4820.34 885.424ZM4899.26 1258.73H4815.83V949.512H4899.26V1258.73Z" fill="#6D4AFF"/>
<path d="M5043.58 1258.73H4960.05V810.014H5043.58V1258.73Z" fill="#6D4AFF"/>
<path fill-rule="evenodd" clip-rule="evenodd" d="M1383.65 799.477V1404.46H1483.93C1536.38 1404.46 1578.87 1361.37 1578.87 1308.32V680.948C1578.87 662.823 1558.05 652.953 1544.26 664.531L1383.65 799.477Z" fill="url(#paint0_linear_11860_363294)"/>
<path fill-rule="evenodd" clip-rule="evenodd" d="M1243.77 917.152L1060.56 1081.04C1029.32 1108.94 982.693 1109.61 950.702 1082.66L660.727 838.575V681.043C660.727 662.918 681.553 652.953 695.344 664.531L1059.15 970.295C1094.33 999.903 1145.36 999.903 1180.54 970.295L1243.77 917.152Z" fill="url(#paint1_linear_11860_363294)"/>
<path d="M1383.65 799.572L1243.77 917.152L1243.87 917.151L1060.56 1081.04C1029.32 1108.94 982.693 1109.61 950.702 1082.66L660.727 838.575V1308.32C660.727 1361.37 703.224 1404.46 755.665 1404.46L1383.65 1404.46V799.572Z" fill="url(#paint2_radial_11860_363294)"/>
<defs>
<linearGradient id="paint0_linear_11860_363294" x1="2964.54" y1="1887.39" x2="2776.79" y2="23.7359" gradientUnits="userSpaceOnUse">
<stop offset="0.271" stop-color="#E3D9FF"/>
<stop offset="1" stop-color="#7341FF"/>
</linearGradient>
<linearGradient id="paint1_linear_11860_363294" x1="1203.25" y1="1411.37" x2="821.429" y2="-96.453" gradientUnits="userSpaceOnUse">
<stop stop-color="#E3D9FF"/>
<stop offset="1" stop-color="#7341FF"/>
</linearGradient>
<radialGradient id="paint2_radial_11860_363294" cx="0" cy="0" r="1" gradientUnits="userSpaceOnUse" gradientTransform="translate(1574.87 750.729) scale(1070.72 1083.11)">
<stop offset="0.5561" stop-color="#6D4AFF"/>
<stop offset="0.9944" stop-color="#AA8EFF"/>
</radialGradient>
</defs>
</svg>
